<svg xmlns="http://www.w3.org/2000/svg" viewBox="0 0 424.86 138.42"><defs><style>.cls-1{fill:#e9af42;}.cls-2{fill:#7bc2d1;}.cls-3{fill:#a4382c;}.cls-4{fill:#33377f;}.cls-5{fill:#d4eaee;}.cls-6{fill:#272425;}</style></defs><title>Logo-BH-Heb</title><g id="Layer_2" data-name="Layer 2"><g id="Layer_3" data-name="Layer 3"><g id="Layer_1-2" data-name="Layer 1-2"><path class="cls-1" d="M364.74,138.42l-6.13-10.55a12.19,12.19,0,0,1,12.12,0l-6,10.55"/><path class="cls-2" d="M310.49,44.62l-6.06-10.48h12.19a12.13,12.13,0,0,1-6.13,10.48"/><polyline class="cls-3" points="328.46 104.68 318.79 104.68 320.2 96.77 327.07 94.92 328.46 104.68"/><polyline class="cls-3" points="322.57 65.48 313.55 49.88 323.96 50.85 322.57 65.48"/><polyline class="cls-1" points="304.5 104.68 310.12 94.94 317.04 97.07 315.7 104.68 304.5 104.68"/><path class="cls-3" d="M356.76,13.1,364.17,0C368,6.58,370,10.26,370,10.26L356.69,13.1"/><polyline class="cls-4" points="322.4 82.53 318.47 80.33 324.58 69.66 326.43 72.67 322.4 82.53"/><polyline class="cls-4" points="412.1 55.24 405.7 53.89 409.11 43.13 417.89 45.14 412.1 55.24"/><polyline class="cls-3" points="353.05 118.1 350.33 113.41 357.72 107.75 363.01 116.45 353.05 118.1"/><path class="cls-1" d="M349.17,111.36l-3.76-6.48h12.07l-8.31,6.48"/><polyline class="cls-3" points="404.42 68.35 399.05 59.2 404.66 56.23 410.62 57.54 404.42 68.35"/><polyline class="cls-2" points="372.48 124.65 367.81 122.73 366.08 115.39 376.98 116.72 372.48 124.65"/><polyline class="cls-3" points="424.86 104.73 415.22 104.73 418.61 93.93 424.86 104.73"/><polyline class="cls-2" points="349.37 26.3 354.83 16.64 364.03 14.66 358.91 26.08 349.37 26.3"/><path class="cls-2" d="M409.73,92.94c-5.19-5.41-8.7-9.14-8.7-9.14l11.77.37,4.4,7.53-7.42,1.24"/><polyline class="cls-1" points="374.41 29.51 364.99 20.74 367.96 14.26 372.18 13.4 379.13 25.48 374.41 29.51"/><polyline class="cls-3" points="406.07 42.76 399.08 42.64 401.7 34.21 408.82 34.21 406.07 42.76"/><polyline class="cls-5" points="403.13 98.82 399.15 97.79 399.89 86.51 408.67 95.81 403.13 98.82"/><polyline class="cls-2" points="346.2 76.97 337.73 72.35 344.15 62.04 350.73 66.47 346.2 76.97"/><path class="cls-2" d="M350.73,96.8l-5.56-6.87c2.86-1.86,8.77-5.25,8.77-5.25l4.72,2.92-7.93,9.2"/><path class="cls-1" d="M341.68,89l1.46-10.73c1.19.59,8.4,4.77,8.4,4.77l-9.88,6"/><polyline class="cls-3" points="330.58 73.86 326.28 66.59 333.18 54.73 337.95 67.48 330.58 73.86"/><polyline class="cls-5" points="356.88 57.57 350.73 51.46 360.32 44.84 362.77 55.72 356.88 57.57"/><polyline class="cls-2" points="372.33 56.19 364.74 51.07 361.73 38.49 368.85 36.83 372.33 56.19"/><polyline class="cls-5" points="378.41 64.05 374.33 52.97 387.31 53.14 378.41 64.05"/><polyline class="cls-4" points="396.51 97.83 389.39 95.31 395.96 83.72 396.51 97.83"/><polyline class="cls-1" points="402.69 70.94 393.44 69.66 396.78 60.68 402.69 70.94"/><polyline class="cls-5" points="394.58 80.75 386.47 77.86 382.44 69.71 398.61 73.64 394.58 80.75"/><polyline class="cls-4" points="339.65 64.27 336 54.28 342.05 46.55 347.27 51.78 339.65 64.27"/><polyline class="cls-2" points="335.03 50.9 334.59 34.14 338 34.14 342.69 40.96 335.03 50.9"/><polyline class="cls-2" points="342.3 104.68 330.9 104.68 329.69 96.5 342.3 104.68"/><polyline class="cls-3" points="346.11 40.86 342.62 37.94 347.69 29.17 355.33 29.09 346.11 40.86"/><polyline class="cls-3" points="335.82 97.04 330.16 93.41 333.03 83.77 339.9 87.9 335.82 97.04"/><polyline class="cls-5" points="320.72 93.48 328.01 75.42 331.15 80.9 327.99 91.51 320.72 93.48"/><path class="cls-2" d="M356.81,124.61l-2.35-4.08L363.8,119s.42,1.93.89,3.81l-7.88,1.81"/><path class="cls-5" d="M365.83,113.23,360.66,108a14.18,14.18,0,0,0,3.19-5.95l7.42.27a13.79,13.79,0,0,1-5.44,10.92"/><polyline class="cls-1" points="412.33 104.73 406.94 104.73 405.08 101.2 414.63 95.24 412.33 104.73"/><path class="cls-3" d="M411.41,81.57,398,81c.4-.91,3.37-6,3.37-6l5.41-1.61,4.67,8.21"/><polyline class="cls-2" points="403.82 104.73 386.27 104.68 390.75 98.38 401.99 101.25 403.82 104.73"/><polyline class="cls-3" points="383.68 105.1 372.73 100.95 379.06 91.21 387.58 98.48 383.68 105.1"/><polyline class="cls-1" points="365.14 99.64 363.01 87.55 375.82 89.7 372.31 96.18 365.14 99.64"/><path class="cls-3" d="M359.38,103.35,352,99.17l7.42-8.5a8.42,8.42,0,0,1,2.69,5.73h0a9,9,0,0,1-2.69,6.87"/><polyline class="cls-2" points="317.95 94.2 311.67 92.32 317.11 82.83 321.63 85.33 317.95 94.2"/><path class="cls-4" d="M378.36,114.4l-7.41-1a14.39,14.39,0,0,0,3.66-9.09l7.81,2.94s-3.88,6.89-4,7.17"/><polyline class="cls-4" points="351.82 102.21 343.73 102.19 338.1 98.5 342.82 91.21 351.82 102.21"/><path class="cls-4" d="M339.7,84.64a7.6,7.6,0,0,1-5.46-11.2l1.73.94,4.94,2.69-1.11,7.57"/><polyline class="cls-5" points="402.31 55.47 398.95 54.75 393.71 45.56 405.6 45.7 402.31 55.47"/><polyline class="cls-4" points="371.1 68.05 359.82 60.31 366.8 55.96 374.56 61.18 375.94 65.5 371.1 68.05"/><polyline class="cls-2" points="361.98 73.31 353.72 67.85 360.67 64.09 368.92 69.43 361.98 73.31"/><path class="cls-1" d="M376.56,78.18h-.64a12.11,12.11,0,0,1-8.85-4.52L377.37,68l4.48,9a12.44,12.44,0,0,1-5.29,1.24"/><polyline class="cls-5" points="359.7 35.99 356.46 33.07 363.7 23.48 371.89 31.29 368.85 33.94 359.7 35.99"/><path class="cls-4" d="M390.35,68.91l-10.73-2.62,8-8.28a10,10,0,0,1,2.77,10.9"/><path class="cls-2" d="M392.77,61.8a10.16,10.16,0,0,0-1.13-2.72,12.16,12.16,0,0,0-2.47-2.92l2.69-8.45L397,56.46l-4.18,5.34"/><path class="cls-2" d="M375.84,50.1h-2.22L372,41l6.48,1.73a11.77,11.77,0,0,0-2.65,7.41"/><polyline class="cls-2" points="419.4 42.44 410.18 40.32 412.03 34.23 424.12 34.23 419.4 42.44"/><polyline class="cls-3" points="353.27 64.96 345.79 59.94 349.44 53.79 358.14 62.22 353.27 64.96"/><polyline class="cls-1" points="349.12 49.49 345.41 46.08 353.99 34.8 359.11 39.67 359.58 42.19 349.12 49.49"/><polyline class="cls-2" points="389.71 89.73 383.5 79.54 393.49 83.08 389.71 89.73"/><path class="cls-5" d="M386.45,93.93l-6-4.94,1.11-7.07a11.86,11.86,0,0,1,5.17,9.88,10.67,10.67,0,0,1-.27,2.33"/><polyline class="cls-5" points="359.65 84.64 348.7 78.41 352.33 70 366.62 78.46 359.65 84.64"/><polyline class="cls-4" points="327.67 44.27 320.2 34.14 332.29 34.14 332.54 40.27 327.67 44.27"/><polyline class="cls-1" points="323.17 47.9 312.42 46.99 319.83 37.97 325.34 46.1 323.17 47.9"/><polyline class="cls-5" points="326.5 61.55 325.79 60.44 326.85 48.52 332.44 43.85 332.61 51.02 326.5 61.55"/><polyline class="cls-3" points="378.07 87.43 363.51 85.03 369.02 79.52 379.28 80.66 378.07 87.43"/><polyline class="cls-1" points="396.56 42.61 391.14 42.54 386.79 34.19 399.2 34.21 396.56 42.61"/><path class="cls-3" d="M388.4,50.67l-10-.12h0a10.07,10.07,0,0,1,9.12-10l2.67,4.5L388.4,50.7"/><path class="cls-4" d="M380.91,40.81l-8.75-2.3-.47-2.82c4.65-3.9,9.05-7.41,9.05-7.41l5.66,10.11a11.45,11.45,0,0,0-4,1.43,9.2,9.2,0,0,0-1.51,1"/><path class="cls-6" d="M3.14,49.44,0,50.47V36.88H3.14Z"/><path class="cls-6" d="M24.27,39.33H21.06V59.77H17.92V39.33H7.12V36.86H24.27Z"/><path class="cls-6" d="M31.79,59.77H28.65V36.88h3.14Z"/><path class="cls-6" d="M56.85,59.77H53.71V45.51c0-4.45-2.62-6.68-7.83-6.68a39,39,0,0,0-8.21.84V37.08A49.9,49.9,0,0,1,46,36.51c7.27,0,10.9,3,10.9,8.85Zm-15.35,0H38.36V47l3.14-.89Z"/><path class="cls-6" d="M65.75,49.44l-3.14,1.08V36.93h3.14Z"/><path class="cls-6" d="M90.59,59.77H87.45V45.51c0-4.45-2.62-6.68-7.83-6.68a39,39,0,0,0-8.21.84V37.08a49.9,49.9,0,0,1,8.28-.57c7.27,0,10.9,3,10.9,8.85Zm-15.35,0H72.1V47l3.14-.89Z"/><path class="cls-6" d="M128,59.77H107.87V36.88h11.72a8.28,8.28,0,0,1,6,2.35,8.1,8.1,0,0,1,2.47,6Zm-3.14-2.47V45.56a6.13,6.13,0,0,0-1.71-4.65,6.48,6.48,0,0,0-4.72-1.63H111v18Z"/><path class="cls-6" d="M151.42,43.9a16.89,16.89,0,0,1-2.62,10.21,20.06,20.06,0,0,1-8.8,5.78l-6.89,2.62V59.65l5.63-2Q135.46,47,132,36.88h3.66c1.41,4.6,3.31,11.17,5.76,19.77a11.11,11.11,0,0,0,5.41-4.74A14.46,14.46,0,0,0,148.31,45V36.88h3.14Z"/><path class="cls-6" d="M176.27,59.77H173V45.51q0-6.67-7.84-6.68a38.88,38.88,0,0,0-8.2.84V37.08a49.9,49.9,0,0,1,8.28-.57c7.26,0,10.9,3,10.9,8.85Zm-15.35,0h-3.14V47l3.14-.89Z"/><path class="cls-6" d="M196.68,67.88h-3.14v-31h3.14Z"/><path class="cls-6" d="M205.93,59.77h-3.24V36.88h3.14Z"/><path class="cls-6" d="M231.73,59.77h-3.48q-3-4.77-9.54-13.25a6.13,6.13,0,0,0-2.47,2.67,7.47,7.47,0,0,0-1,3.66v6.92H212V53.39a9.16,9.16,0,0,1,1.61-4.94A8.06,8.06,0,0,1,217.52,45c-.67-.94-1.65-2.15-2.92-3.71l-3.68-4.4h3.68c1.73,2.1,4.73,5.88,8.93,11.37a4.7,4.7,0,0,0,2.47-2,5.21,5.21,0,0,0,1.16-3.09V36.88h3.21v4.94A8.68,8.68,0,0,1,224.71,50C227.68,53.86,230,57.12,231.73,59.77Z"/><path class="cls-6" d="M239.57,49.44l-3.14,1.08V36.93h3.14Z"/><path class="cls-6" d="M255,39.33H252.5a4.65,4.65,0,0,0-1.93,2.47,8.35,8.35,0,0,0-.69,3.19V59.67h-3.07V47.14a9.18,9.18,0,0,1,3.88-7.81h-6.84V36.86H255Z"/><path class="cls-6" d="M262.56,59.77h-3V36.88h3.14Z"/><path class="cls-6" d="M291.11,47.34a16.77,16.77,0,0,1-2.05,8.77,8.15,8.15,0,0,1-7.42,4.18,11.59,11.59,0,0,1-4.05-.57V57.25a11.85,11.85,0,0,0,3.93.57q6.33,0,6.35-10.26a11.19,11.19,0,0,0-1.36-5.37,5.53,5.53,0,0,0-4.94-3.31c-2.48,0-4.45,1.58-6.11,4.72A21,21,0,0,0,273,51l-1.19,8.72h-3.19c.45-2.69.89-5.68,1.31-8.94a30,30,0,0,0,.33-4,23.24,23.24,0,0,0-1.12-5.41c-.23-.87-.65-2.38-1.26-4.52h3.41c.45,1.75,1,4.3,1.73,7.66a14,14,0,0,1,3.84-6.73,7.77,7.77,0,0,1,4.79-1.36,8.38,8.38,0,0,1,6.92,3.37A11.76,11.76,0,0,1,291.11,47.34Z"/><path class="cls-6" d="M80.09,102.93H77V88.59A5.8,5.8,0,0,0,75.24,84a6.85,6.85,0,0,0-4.74-1.55h-6V98.87A4.2,4.2,0,0,1,63,102.36a5.94,5.94,0,0,1-3.85,1.21,5.87,5.87,0,0,1-3-.64v-2.47a5.73,5.73,0,0,0,2.25.69,2.59,2.59,0,0,0,2.92-2.22,2.69,2.69,0,0,0,0-.75V82.49H56.85V80H71.68a8.61,8.61,0,0,1,6.18,2.1,8,8,0,0,1,2.23,6.08Z"/><path class="cls-6" d="M89.16,102.93H86V80h3.14Z"/><path class="cls-6" d="M112.44,102.93H94.6v-2.47h14.19Q106.62,97.58,102,91C98.35,85.9,95.71,82.19,94.08,80h3.76q2.46,3.47,8,11.42a7,7,0,0,0,3.41-5.66V80h3.14v4.69a8.22,8.22,0,0,1-1.43,5A13.57,13.57,0,0,1,107.08,93l5.36,8Z"/><path class="cls-6" d="M121,102.93h-3.14V80H121Z"/><path class="cls-6" d="M146.48,91.46a11.71,11.71,0,0,1-3.36,8.87,12.38,12.38,0,0,1-9.05,3.24,20.37,20.37,0,0,1-6.84-1.09V99.86a20.13,20.13,0,0,0,6.32,1.31q9.6,0,9.62-9.71c0-6.48-2.65-9.71-8-9.69a7.58,7.58,0,0,0-4.35,1.14,4.43,4.43,0,0,0-1.93,3.93,3.38,3.38,0,0,0,1.36,2.89,5.18,5.18,0,0,0,3.26,1,5.46,5.46,0,0,0,1,0v2.47a11.53,11.53,0,0,1-1.55.2c-4.8,0-7.2-2.11-7.2-6.26a6.66,6.66,0,0,1,3.09-5.93,12.39,12.39,0,0,1,6.75-1.66A10.25,10.25,0,0,1,143.91,83,13.25,13.25,0,0,1,146.48,91.46Z"/><path class="cls-6" d="M173.82,102.93h-3.09V88.59A5.81,5.81,0,0,0,169,84a6.88,6.88,0,0,0-4.77-1.55h-6V98.87a4.21,4.21,0,0,1-1.51,3.49,6,6,0,0,1-3.86,1.21,5.85,5.85,0,0,1-3-.64v-2.47a5.73,5.73,0,0,0,2.25.69,2.62,2.62,0,0,0,2.94-2.25,2.89,2.89,0,0,0,0-.72V82.49h-4.55V80h14.83a8.56,8.56,0,0,1,6.18,2.1,8,8,0,0,1,2.23,6.08Z"/><path class="cls-6" d="M198.74,102.93H195.6V88.66q0-6.66-7.86-6.67a37.76,37.76,0,0,0-8.21.84V80.16a50.5,50.5,0,0,1,8.33-.57c7.27,0,10.9,3,10.9,8.85Zm-15.35,0h-3.14V90.07l3.14-.89Z"/><path class="cls-6" d="M238.31,102.93h-3.09V88.59A5.8,5.8,0,0,0,233.46,84a6.85,6.85,0,0,0-4.74-1.55h-6V98.87a4.24,4.24,0,0,1-1.49,3.49,6.93,6.93,0,0,1-6.82.57v-2.47a5.73,5.73,0,0,0,2.25.69,2.63,2.63,0,0,0,2.95-2.25,2.48,2.48,0,0,0,0-.72V82.49h-4.57V80h14.83a8.61,8.61,0,0,1,6.18,2.1,7.94,7.94,0,0,1,2.22,6.08Z"/><path class="cls-6" d="M247.18,92.55,244,93.63V80h3.14Z"/><path class="cls-6" d="M270.49,102.93H251.43v-2.47h13.06V88.1a5.51,5.51,0,0,0-2.11-4.5,7.39,7.39,0,0,0-4.79-1.66,20.41,20.41,0,0,0-5.66.79V80.26a25.38,25.38,0,0,1,5.63-.57,11.5,11.5,0,0,1,6.93,1.88,7.66,7.66,0,0,1,3,6.5v12.36h3Z"/><path class="cls-6" d="M292,102.93H273v-2.47h13V88.1a5.55,5.55,0,0,0-2.08-4.5,7.58,7.58,0,0,0-4.79-1.66,20.62,20.62,0,0,0-5.69.79V80.26a25.41,25.41,0,0,1,5.64-.57,11.51,11.51,0,0,1,7.07,2,7.66,7.66,0,0,1,3,6.5V100.6h3Z"/></g></g></g></svg>