<svg xmlns="http://www.w3.org/2000/svg" viewBox="0 0 177.99 55.96"><title>Logo-Eng-Online</title><g id="Layer_2" data-name="Layer 2"><g id="Layer_1-2" data-name="Layer 1"><path d="M21.92,51.7,24.4,56l2.42-4.27A5,5,0,0,0,24.37,51a4.85,4.85,0,0,0-2.45.66Z" style="fill:#fbaf34"/><path d="M4.93,13.81H0l2.45,4.24a4.92,4.92,0,0,0,1.8-1.77,5.08,5.08,0,0,0,.68-2.47Z" style="fill:#46c3d3"/><polygon points="9.16 38.4 6.38 39.15 5.81 42.34 9.72 42.35 9.16 38.4 9.16 38.4" style="fill:#be3526"/><polygon points="3.69 20.18 7.9 20.57 7.34 26.49 3.69 20.18 3.69 20.18" style="fill:#be3526"/><polygon points="2.3 38.41 0.04 42.35 4.56 42.34 5.11 39.27 2.3 38.41 2.3 38.41" style="fill:#fbaf34"/><path d="M21.17,5.3s4.83-1,5.4-1.16c0,0-.81-1.48-2.37-4.14l-3,5.3Z" style="fill:#be3526"/><polygon points="8.9 29.4 8.15 28.18 5.68 32.5 7.27 33.39 8.9 29.4 8.9 29.4" style="fill:#2d3481"/><polygon points="40.97 21.8 42.35 17.45 45.9 18.26 43.56 22.35 40.97 21.8 40.97 21.8" style="fill:#2d3481"/><polygon points="19.67 47.78 23.7 47.11 21.55 43.59 18.57 45.88 19.67 47.78 19.67 47.78" style="fill:#be3526"/><path d="M18.1,45.05l3.36-2.62H16.59l1.51,2.62Z" style="fill:#fbaf34"/><polygon points="38.28 23.95 40.45 27.65 42.96 23.28 40.54 22.74 38.28 23.95 38.28 23.95" style="fill:#be3526"/><polygon points="24.94 46.68 25.63 49.65 27.52 50.43 29.35 47.21 24.94 46.68 24.94 46.68" style="fill:#46c3d3"/><polygon points="46.19 38 48.72 42.37 44.82 42.37 46.19 38 46.19 38" style="fill:#be3526"/><polygon points="24.11 5.92 20.39 6.72 18.18 10.63 22.04 10.55 24.11 5.92 24.11 5.92" style="fill:#46c3d3"/><path d="M42.59,37.6l3-.51-1.79-3-4.76-.16,3.52,3.71Z" style="fill:#46c3d3"/><polygon points="28.31 11.93 30.22 10.31 27.41 5.42 25.7 5.77 24.49 8.38 28.31 11.93 28.31 11.93" style="fill:#fbaf34"/><polygon points="38.29 17.25 41.12 17.29 42.23 13.84 39.35 13.84 38.29 17.25 38.29 17.25" style="fill:#be3526"/><polygon points="38.32 39.56 38.62 35 42.17 38.76 39.93 39.97 38.32 39.56 38.32 39.56" style="fill:#caeaee"/><polygon points="18.72 26.89 16.07 25.1 13.47 29.27 16.89 31.14 18.72 26.89 18.72 26.89" style="fill:#46c3d3"/><path d="M18.73,39.16l3.21-3.72L20,34.26s-2.39,1.37-3.55,2.12l2.25,2.78Z" style="fill:#46c3d3"/><path d="M15.08,36s3.51-2.14,4-2.41c0,0-2.93-1.69-3.41-1.93L15.08,36Z" style="fill:#fbaf34"/><polygon points="11.63 22.15 13.56 27.3 10.58 29.88 8.84 26.94 11.63 22.15 11.63 22.15" style="fill:#be3526"/><polygon points="18.73 20.82 21.22 23.29 23.59 22.54 22.61 18.14 18.73 20.82 18.73 20.82" style="fill:#caeaee"/><polygon points="27.47 22.73 26.06 14.9 23.18 15.56 24.4 20.65 27.47 22.73 27.47 22.73" style="fill:#46c3d3"/><polygon points="33.53 21.5 28.28 21.43 29.93 25.91 33.53 21.5 33.53 21.5" style="fill:#caeaee"/><polygon points="37.25 39.58 34.37 38.56 37.03 33.87 37.25 39.58 37.25 39.58" style="fill:#2d3481"/><polygon points="37.36 24.55 39.75 28.7 36.01 28.18 37.36 24.55 37.36 24.55" style="fill:#fbaf34"/><polygon points="38.1 29.79 31.57 28.19 33.2 31.5 36.47 32.67 38.1 29.79 38.1 29.79" style="fill:#caeaee"/><polygon points="14.25 26 17.33 20.94 15.22 18.83 12.77 21.95 14.25 26 14.25 26" style="fill:#2d3481"/><polygon points="12.2 13.8 13.58 13.8 15.48 16.57 12.38 20.59 12.2 13.8 12.2 13.8" style="fill:#46c3d3"/><polygon points="15.32 42.35 10.71 42.35 10.22 39.04 15.32 42.35 15.32 42.35" style="fill:#46c3d3"/><polygon points="15.45 15.35 16.86 16.53 20.59 11.77 17.5 11.8 15.45 15.35 15.45 15.35" style="fill:#be3526"/><polygon points="11.57 33.89 10.41 37.79 12.7 39.26 14.35 35.56 11.57 33.89 11.57 33.89" style="fill:#be3526"/><path d="M9.53,37s1.27-4.26,1.27-4.29L9.54,30.51,6.59,37.82,9.53,37Z" style="fill:#caeaee"/><path d="M21.19,50.41l3.18-.73c-.18-.76-.36-1.54-.36-1.54l-3.77.62,1,1.65Z" style="fill:#46c3d3"/><path d="M27,41.39l-2.95-.11a5.77,5.77,0,0,1-1.29,2.4l2.09,2.13A5.64,5.64,0,0,0,27,41.39Z" style="fill:#caeaee"/><path d="M41.47,42.37h2.18l.93-3.84-3.86,2.41.75,1.43Z" style="fill:#fbaf34"/><path d="M43.28,33l-1.93-3.33-2.19.65S38,32.38,37.8,32.75l5.48.26Z" style="fill:#be3526"/><polygon points="40.22 42.37 39.47 40.96 34.92 39.8 33.11 42.35 40.22 42.37 40.22 42.37" style="fill:#46c3d3"/><polygon points="33.64 39.84 30.19 36.9 27.63 40.84 32.06 42.52 33.64 39.84 33.64 39.84" style="fill:#be3526"/><path d="M24.57,40.31l2.89-1.4,1.42-2.62s-5.18-.88-5.18-.87l.87,4.89Z" style="fill:#fbaf34"/><path d="M22.2,36.67l-2.95,3.44,3,1.7A3.63,3.63,0,0,0,23.32,39v-.09a3.46,3.46,0,0,0-1.12-2.27Z" style="fill:#be3526"/><path d="M5.48,38.11,7,34.51l-1.83-1s-2.21,3.82-2.2,3.84l2.55.77Z" style="fill:#46c3d3"/><path d="M26.9,45.87l3,.4,1.63-2.9-3.16-1.18a5.81,5.81,0,0,1-1.48,3.68Z" style="fill:#2d3481"/><polygon points="15.54 36.9 19.17 41.35 15.9 41.34 13.62 39.85 15.54 36.9 15.54 36.9" style="fill:#2d3481"/><path d="M12.11,32.79a3.07,3.07,0,0,0,2.17,1.45l.44-3.07-2-1.08-.7-.38a3.06,3.06,0,0,0,0,3.08Z" style="fill:#2d3481"/><polygon points="38.23 22.15 39.6 22.43 40.92 18.48 36.11 18.42 38.23 22.15 38.23 22.15" style="fill:#caeaee"/><polygon points="26.97 27.53 28.94 26.5 28.36 24.74 25.23 22.64 22.41 24.4 26.97 27.53 26.97 27.53" style="fill:#2d3481"/><polygon points="19.94 27.45 23.28 29.67 26.09 28.09 22.75 25.92 19.94 27.45 19.94 27.45" style="fill:#46c3d3"/><path d="M25.35,29.79a4.9,4.9,0,0,0,6,1.34l-1.81-3.66-4.16,2.32Z" style="fill:#fbaf34"/><polygon points="26.05 13.73 22.36 14.56 21.05 13.38 23.98 9.51 27.29 12.66 26.05 13.73 26.05 13.73" style="fill:#caeaee"/><path d="M30.42,26.82l3.22-3.35a4.07,4.07,0,0,1,1.12,4.41l-4.34-1.06Z" style="fill:#2d3481"/><path d="M35.28,23.9a4.58,4.58,0,0,1,.46,1.1l1.72-2.16L35.4,19.3l-1.08,3.42a4.86,4.86,0,0,1,1,1.18Z" style="fill:#46c3d3"/><path d="M30,17.27l-2.63-.7.66,3.7h.9a4.85,4.85,0,0,1,1.07-3Z" style="fill:#46c3d3"/><polygon points="48.42 13.85 46.51 17.17 42.78 16.3 43.53 13.85 48.42 13.85 48.42 13.85" style="fill:#46c3d3"/><polygon points="21.73 25.17 19.76 26.27 16.73 24.25 18.21 21.76 21.73 25.17 21.73 25.17" style="fill:#be3526"/><polygon points="20.05 14.08 16.57 18.64 18.08 20.02 22.31 17.06 22.12 16.05 20.05 14.08 20.05 14.08" style="fill:#fbaf34"/><polygon points="36.03 33.61 34.5 36.29 31.99 32.18 36.03 33.61 36.03 33.61" style="fill:#46c3d3"/><path d="M33.18,38a5.88,5.88,0,0,0,.11-.94,4.78,4.78,0,0,0-2.09-4L30.75,36,33.18,38Z" style="fill:#caeaee"/><polyline points="19.38 28.32 17.91 31.71 22.33 34.24 25.16 31.74" style="fill:#caeaee"/><polygon points="11.37 16.28 11.27 13.8 6.37 13.8 9.4 17.91 11.37 16.28 11.37 16.28" style="fill:#2d3481"/><polygon points="3.23 19.01 7.57 19.38 8.46 18.65 6.24 15.37 3.23 19.01 3.23 19.01" style="fill:#fbaf34"/><polygon points="8.93 24.89 11.4 20.63 11.33 17.74 9.07 19.63 8.64 24.46 8.93 24.89 8.93 24.89" style="fill:#caeaee"/><polygon points="29.78 35.37 30.28 32.63 26.13 32.17 23.89 34.4 29.78 35.37 29.78 35.37" style="fill:#be3526"/><polygon points="33.33 13.83 35.08 17.21 37.27 17.24 38.34 13.84 33.33 13.83 33.33 13.83" style="fill:#fbaf34"/><path d="M29.91,20.45,34,20.5l.71-2.29L33.6,16.39a4.07,4.07,0,0,0-3.69,4.05Z" style="fill:#be3526"/><path d="M27.21,14.44l.19,1.14,3.54.93a3.67,3.67,0,0,1,.61-.42,4.69,4.69,0,0,1,1.6-.58l-2.28-4.09s-1.78,1.44-3.66,3Z" style="fill:#2d3481"/><path d="M43.28,17.79v.47" style="fill:#231f20"/><path d="M57.56,9.08H59.1l2.67,7.11,2.68-7.11H66v8.46H64.93v-7h0l-2.64,7h-1l-2.65-7h0v7H57.56Z" style="fill:#231f20"/><path d="M75.16,14.48c0,2.17-1.2,3.25-3.34,3.25s-3.47-1-3.47-3.25V9.08h1.13v5.4a2.09,2.09,0,0,0,2.34,2.32A2,2,0,0,0,74,14.48V9.08h1.13Z" style="fill:#231f20"/><path d="M82.39,11.56a1.83,1.83,0,0,0-2.1-1.73c-1,0-1.9.34-1.9,1.44,0,2.1,5.42.61,5.42,4,0,1.81-1.77,2.51-3.31,2.51-1.89,0-3.49-.92-3.49-3h1.06c0,1.42,1.19,2,2.47,2,1,0,2.14-.32,2.14-1.54,0-2.34-5.41-.79-5.41-3.91,0-1.7,1.51-2.47,3.07-2.47,1.73,0,3.06.82,3.11,2.68Z" style="fill:#231f20"/><path d="M85.71,9.08h5.84V10H86.83v2.69h4.4v.95h-4.4V16.6h4.76v.94H85.71Z" style="fill:#231f20"/><path d="M100.24,14.48c0,2.17-1.2,3.25-3.33,3.25s-3.47-1-3.47-3.25V9.08h1.12v5.4a2.09,2.09,0,0,0,2.35,2.32,2,2,0,0,0,2.21-2.32V9.08h1.12Z" style="fill:#231f20"/><path d="M102.6,9.08h1.54l2.67,7.11,2.68-7.11H111v8.46H110v-7h0l-2.65,7h-1l-2.64-7h0v7H102.6Z" style="fill:#231f20"/><path d="M120.84,8.88c2.7,0,4.06,2.12,4.06,4.43s-1.36,4.42-4.06,4.42-4-2.09-4-4.42S118.15,8.88,120.84,8.88Zm0,7.92c2.07,0,2.93-1.78,2.93-3.49s-.86-3.48-2.93-3.48-2.92,1.77-2.92,3.48S118.78,16.8,120.84,16.8Z" style="fill:#231f20"/><path d="M126.81,9.08h5.56V10h-4.44v2.69h3.89v.95h-3.89v3.87h-1.12Z" style="fill:#231f20"/><path d="M139.9,10h-2.83V9.08h6.77V10H141v7.51H139.9Z" style="fill:#231f20"/><path d="M145.31,9.08h1.13v3.64h4.46V9.08H152v8.46H150.9V13.67h-4.46v3.87h-1.13Z" style="fill:#231f20"/><path d="M154.41,9.08h5.84V10h-4.72v2.69h4.4v.95h-4.4V16.6h4.76v.94h-5.88Z" style="fill:#231f20"/><path d="M61.84,29.66a2.18,2.18,0,0,1-2.5,2.3,2.2,2.2,0,0,1-2.46-2.45V29H58v.36c0,1,.26,1.68,1.37,1.68s1.35-.59,1.35-1.53V23.3h1.12Z" style="fill:#231f20"/><path d="M64.23,23.3h5.84v.95H65.35v2.69h4.4v.95h-4.4v2.93h4.76v.95H64.23Z" style="fill:#231f20"/><path d="M79.65,31.77H78.48l-1.94-7.11h0l-2,7.11H73.39L71.22,23.3h1.15L74,30.35h0l1.9-7h1.22l1.88,7.05h0l1.72-7h1.12Z" style="fill:#231f20"/><path d="M83.56,23.3h1.13v8.47H83.56Z" style="fill:#231f20"/><path d="M92,25.78a1.84,1.84,0,0,0-2.1-1.73c-1,0-1.89.34-1.89,1.45,0,2.1,5.42.6,5.42,3.95,0,1.81-1.77,2.51-3.31,2.51-1.9,0-3.5-.93-3.5-3H87.7c0,1.43,1.18,2,2.46,2,1,0,2.15-.32,2.15-1.54,0-2.33-5.42-.78-5.42-3.9,0-1.71,1.52-2.48,3.07-2.48,1.73,0,3.06.82,3.12,2.68Z" style="fill:#231f20"/><path d="M95.33,23.3h1.13v3.64h4.46V23.3H102v8.47h-1.12V27.89H96.46v3.88H95.33Z" style="fill:#231f20"/><path d="M108.26,23.3H112a2.3,2.3,0,0,1,2.59,2.51,2.3,2.3,0,0,1-2.59,2.5h-2.59v3.46h-1.12Zm1.12,4.06h2.21c1.28,0,1.85-.55,1.85-1.55s-.57-1.56-1.85-1.56h-2.21Z" style="fill:#231f20"/><path d="M116.47,23.3h5.85v.95H117.6v2.69H122v.95h-4.4v2.93h4.75v.95h-5.88Z" style="fill:#231f20"/><path d="M127.83,23.1c2.69,0,4,2.12,4,4.44s-1.36,4.42-4,4.42-4.06-2.1-4.06-4.42S125.14,23.1,127.83,23.1Zm0,7.92c2.06,0,2.93-1.78,2.93-3.48s-.87-3.49-2.93-3.49-2.93,1.78-2.93,3.49S125.76,31,127.83,31Z" style="fill:#231f20"/><path d="M133.79,23.3h3.71a2.31,2.31,0,0,1,2.6,2.51,2.3,2.3,0,0,1-2.6,2.5h-2.58v3.46h-1.13Zm1.13,4.06h2.2c1.28,0,1.85-.55,1.85-1.55s-.57-1.56-1.85-1.56h-2.2Z" style="fill:#231f20"/><path d="M142,23.3h1.12v7.52h4.48v.95H142Z" style="fill:#231f20"/><path d="M149.13,23.3H155v.95h-4.72v2.69h4.4v.95h-4.4v2.93H155v.95h-5.88Z" style="fill:#231f20"/><path d="M59.84,37.53h1.24L64.39,46H63.15l-.93-2.55H58.64l-1,2.55H56.54Zm-.84,5h2.87l-1.41-4h0Z" style="fill:#231f20"/><path d="M66.59,38.48H63.76v-.95h6.77v.95H67.71V46H66.59Z" style="fill:#231f20"/><path d="M75.83,37.53H78.9a5,5,0,0,1,2.24.31,2,2,0,0,1,1,1.77,1.91,1.91,0,0,1-1.26,1.89v0a1.93,1.93,0,0,1,1.61,2A2.42,2.42,0,0,1,79.92,46H75.83ZM77,41.17h2.25c1.28,0,1.8-.45,1.8-1.35,0-1.19-.82-1.34-1.8-1.34H77Zm0,3.88h2.82a1.43,1.43,0,0,0,1.59-1.52c0-1.1-.89-1.41-1.84-1.41H77Z" style="fill:#231f20"/><path d="M84.49,37.53h5.84v.95H85.61v2.69H90v.95h-4.4v2.93h4.76v1H84.49Z" style="fill:#231f20"/><path d="M92.31,37.53h1.13V46H92.31Z" style="fill:#231f20"/><path d="M97.79,38.48H95v-.95h6.76v.95H98.91V46H97.79Z" style="fill:#231f20"/><path d="M107,37.53h1.13v3.64h4.46V37.53h1.12V46h-1.12V42.12h-4.46V46H107Z" style="fill:#231f20"/><path d="M118.43,37.53h1.24L123,46h-1.25l-.92-2.55h-3.58l-1,2.55h-1.15Zm-.85,5h2.87l-1.41-4h0Z" style="fill:#231f20"/><path d="M125.17,38.48h-2.82v-.95h6.77v.95H126.3V46h-1.13Z" style="fill:#231f20"/><path d="M130.59,37.53h5.56v.95h-4.43v2.69h3.88v.95h-3.88V46h-1.13Z" style="fill:#231f20"/><path d="M144.69,42.94c0,2.17-1.2,3.25-3.34,3.25s-3.47-1-3.47-3.25V37.53H139v5.41a2.08,2.08,0,0,0,2.34,2.31,2,2,0,0,0,2.21-2.31V37.53h1.13Z" style="fill:#231f20"/><path d="M148.94,38.48h-2.82v-.95h6.77v.95h-2.82V46h-1.13Z" style="fill:#231f20"/><path d="M159.25,40a1.83,1.83,0,0,0-2.09-1.73c-1,0-1.9.34-1.9,1.44,0,2.1,5.42.61,5.42,4,0,1.82-1.77,2.52-3.31,2.52-1.9,0-3.5-.93-3.5-3h1.07c0,1.42,1.18,2,2.47,2,1,0,2.14-.32,2.14-1.54,0-2.34-5.42-.79-5.42-3.9,0-1.71,1.52-2.48,3.07-2.48,1.73,0,3.06.82,3.12,2.68Z" style="fill:#231f20"/><path d="M166.15,37.33c2.7,0,4.06,2.12,4.06,4.43s-1.36,4.43-4.06,4.43-4.05-2.1-4.05-4.43S163.46,37.33,166.15,37.33Zm0,7.92c2.07,0,2.93-1.78,2.93-3.49s-.86-3.48-2.93-3.48-2.92,1.78-2.92,3.48S164.09,45.25,166.15,45.25Z" style="fill:#231f20"/><path d="M174,38.48h-2.82v-.95H178v.95h-2.83V46H174Z" style="fill:#231f20"/></g></g></svg>