<svg id="Layer_1" data-name="Layer 1" xmlns="http://www.w3.org/2000/svg" viewBox="0 0 297.44 157.21"><defs><style>.cls-1{fill:#2814ff;}</style></defs><path class="cls-1" d="M100,101V90.8H91.49V88.43h11.12V101Zm-5.79,0h-2.6V93.73h2.6Z"/><rect class="cls-1" x="45.35" y="56.5" width="2.6" height="15.72"/><rect class="cls-1" x="50.76" y="56.5" width="2.6" height="12.57"/><polygon class="cls-1" points="68.57 57.66 63.86 63.36 68.36 67.63 66.58 69.56 58.77 61.99 58.77 69.08 56.17 69.08 56.17 56.11 56.23 56.11 62.03 61.62 66.52 56.06 68.57 57.66"/><rect class="cls-1" x="70.33" y="56.5" width="2.6" height="6.79"/><polygon class="cls-1" points="82.56 56.5 82.56 58.87 80.07 58.87 80.07 69.08 77.47 69.08 77.47 58.87 74.96 58.87 74.96 56.5 82.56 56.5"/><rect class="cls-1" x="84.68" y="56.5" width="2.6" height="12.57"/><path class="cls-1" d="M92.56,69.08H90V62.79a6.64,6.64,0,1,1,13.28,0c0,5.18-4.21,8-8.92,5.85l.81-2.16c2.83,1.47,5.52-.29,5.52-3.69a4,4,0,1,0-8.09,0Z"/><path class="cls-1" d="M62.85,72.39H75V85H62.85Zm2.6,10.21h6.93V74.76H65.45Z"/><polygon class="cls-1" points="86.23 72.39 88.83 72.39 88.83 84.97 76.97 84.97 76.97 82.6 79.59 82.6 79.59 72.39 82.19 72.39 82.19 82.6 86.23 82.6 86.23 72.39"/><path class="cls-1" d="M100,85V74.76H91.49V72.39h11.12V85Zm-5.79,0h-2.6V77.7h2.6Z"/><rect class="cls-1" x="49.17" y="88.29" width="2.6" height="6.79"/><polygon class="cls-1" points="60.25 100.86 60.25 90.65 53.9 90.65 53.9 88.28 65.07 88.28 65.07 90.65 62.85 90.65 62.85 100.86 60.25 100.86"/><rect class="cls-1" x="67.16" y="88.29" width="2.6" height="12.57"/><path class="cls-1" d="M81,100.86V90.65H72.42V88.29H83.55v12.57Zm-5.78,0h-2.6V93.59h2.6Z"/><rect class="cls-1" x="86.29" y="88.29" width="2.6" height="6.79"/><path class="cls-1" d="M169.42,47.34v39.5c0,8.44-6.14,14.28-14.69,14.28h-4.28v9.8h4.28c14.69,0,25.12-9.69,25.12-23.77l-.11-39.81Z"/><rect class="cls-1" x="129.4" y="47.34" width="10.42" height="62.54"/><polygon class="cls-1" points="243.95 45.35 220.29 74.33 190.79 45.56 190.48 45.56 190.48 109.88 200.9 109.88 200.9 69.85 243.53 111.86 250.73 104.14 227.48 81.42 252.08 51.71 243.95 45.35"/></svg>