<svg id="Layer_1" data-name="Layer 1" xmlns="http://www.w3.org/2000/svg" viewBox="0 0 440.6 157.21"><defs><style>.cls-1{fill:#2814ff;}</style></defs><polygon class="cls-1" points="269.93 56.02 269.99 56.02 269.99 68.74 267.52 68.74 267.52 61.53 263.75 65.04 259.96 61.53 259.96 68.74 257.5 68.74 257.5 56.02 257.56 56.02 263.75 61.8 269.93 56.02"/><path class="cls-1" d="M282.68,56.41l0,7.87c0,2.77-2.11,4.73-5.07,4.73s-5.09-2-5.09-4.73l0-7.87h2.52v7.73a2.54,2.54,0,0,0,5.08,0V56.41Z"/><path class="cls-1" d="M286.4,64.45a2.42,2.42,0,0,0,2.32,2.32c1.17,0,2.12-.52,2.12-1.69s-1-1.52-2.43-2c-1.76-.68-3.41-1.5-3.41-3.6s1.65-3.28,3.8-3.28a3.64,3.64,0,0,1,3.95,3.12l-2.39.45a1.51,1.51,0,0,0-1.47-1.42,1.19,1.19,0,0,0-1.34,1.19c0,1,1.23,1.38,2.63,1.92,1.66.61,3.27,1.51,3.27,3.65,0,2.57-2,4-4.75,4-2.22,0-4.44-1.18-4.72-4.09Z"/><polygon class="cls-1" points="303.43 58.73 298.16 58.73 298.16 61.26 303.43 61.26 303.43 63.48 298.16 63.48 298.16 66.42 303.43 66.42 303.43 68.74 295.62 68.74 295.62 56.41 303.43 56.41 303.43 58.73"/><path class="cls-1" d="M316.55,56.41l0,7.87c0,2.77-2.12,4.73-5.08,4.73s-5.09-2-5.09-4.73l0-7.87H309v7.73a2.54,2.54,0,0,0,5.08,0V56.41Z"/><polygon class="cls-1" points="331.55 56.02 331.61 56.02 331.61 68.74 329.15 68.74 329.15 61.53 325.37 65.04 321.59 61.53 321.59 68.74 319.12 68.74 319.12 56.02 319.18 56.02 325.37 61.8 331.55 56.02"/><path class="cls-1" d="M266.62,88.43v8.43H260v3.82H257.5V88.43Zm-2.53,2.31H260v3.81h4.06Z"/><polygon class="cls-1" points="276.95 90.74 271.71 90.74 271.71 93.25 276.95 93.25 276.95 95.45 271.71 95.45 271.71 98.37 276.95 98.37 276.95 100.68 269.18 100.68 269.18 88.43 276.95 88.43 276.95 90.74"/><polygon class="cls-1" points="322.2 90.74 316.96 90.74 316.96 93.25 322.2 93.25 322.2 95.45 316.96 95.45 316.96 98.37 322.2 98.37 322.2 100.68 314.43 100.68 314.43 88.43 322.2 88.43 322.2 90.74"/><path class="cls-1" d="M278.92,94.55a6.48,6.48,0,1,1,6.47,6.49,6.43,6.43,0,0,1-6.47-6.49m10.43,0a4,4,0,1,0-4,4.13,4,4,0,0,0,4-4.13"/><path class="cls-1" d="M303,88.43v8.43h-6.59v3.82h-2.54V88.43Zm-2.53,2.31h-4.06v3.81h4.06Z"/><polygon class="cls-1" points="305.66 100.68 305.66 88.43 308.19 88.43 308.19 98.37 313.09 98.37 313.09 100.68 305.66 100.68"/><path class="cls-1" d="M257.5,78.62A6.46,6.46,0,1,1,264,85.1a6.42,6.42,0,0,1-6.46-6.48m10.41,0a4,4,0,1,0-4,4.12,4,4,0,0,0,4-4.12"/><polygon class="cls-1" points="282.08 74.81 276.02 74.81 276.02 77.87 280.45 77.87 280.45 80.17 276.02 80.17 276.02 84.74 273.5 84.74 273.5 80.17 272.31 80.17 272.31 77.87 273.5 77.87 273.5 72.51 282.08 72.51 282.08 74.81"/><polygon class="cls-1" points="296.14 72.51 296.14 74.81 293.08 74.81 293.08 84.74 290.55 84.74 290.55 74.81 287.47 74.81 287.47 72.51 296.14 72.51"/><polygon class="cls-1" points="306.18 72.51 308.71 72.51 308.71 84.74 306.18 84.74 306.18 78.48 300.7 78.48 300.7 84.74 298.17 84.74 298.17 72.51 300.7 72.51 300.7 76.18 306.18 76.18 306.18 72.51"/><polygon class="cls-1" points="328.63 80.15 328.63 82.44 331.73 82.44 331.73 72.51 334.26 72.51 334.26 84.74 326.27 84.74 326.27 80.15 328.63 80.15"/><polygon class="cls-1" points="362.17 72.22 364.39 73.34 358.3 85.13 358.22 85.13 355.42 79.68 352.63 85.13 352.55 85.13 346.46 73.34 348.68 72.22 352.61 79.95 354.08 77.08 352.14 73.31 354.22 72.22 355.42 74.67 356.63 72.22 358.71 73.31 356.77 77.09 358.24 79.95 362.17 72.22"/><rect class="cls-1" x="366.11" y="72.51" width="2.53" height="12.23"/><path class="cls-1" d="M372.51,80.48a2.38,2.38,0,0,0,2.3,2.3c1.16,0,2.1-.51,2.1-1.67s-1-1.51-2.41-2c-1.75-.67-3.38-1.49-3.38-3.56s1.63-3.27,3.77-3.27a3.6,3.6,0,0,1,3.91,3.1l-2.36.45a1.5,1.5,0,0,0-1.47-1.4,1.17,1.17,0,0,0-1.32,1.18c0,1,1.22,1.36,2.61,1.89,1.65.61,3.24,1.51,3.24,3.63,0,2.55-2,3.93-4.71,3.91-2.2,0-4.4-1.16-4.69-4Z"/><polygon class="cls-1" points="389.38 72.51 391.91 72.51 391.91 84.74 389.38 84.74 389.38 78.48 383.9 78.48 383.9 84.74 381.37 84.74 381.37 72.51 383.9 72.51 383.9 76.18 389.38 76.18 389.38 72.51"/><polygon class="cls-1" points="319.19 74.81 313.97 74.81 313.97 77.32 319.19 77.32 319.19 79.52 313.97 79.52 313.97 82.44 319.19 82.44 319.19 84.74 311.44 84.74 311.44 72.51 319.19 72.51 319.19 74.81"/><polygon class="cls-1" points="344.74 74.81 339.51 74.81 339.51 77.32 344.74 77.32 344.74 79.52 339.51 79.52 339.51 82.44 344.74 82.44 344.74 84.74 336.99 84.74 336.99 72.51 344.74 72.51 344.74 74.81"/><polygon class="cls-1" points="160.21 87.78 119.56 45.46 119.25 45.46 119.25 109.77 129.46 109.77 129.46 69.23 170.12 111.55 170.43 111.55 170.43 47.23 160.21 47.23 160.21 87.78"/><path class="cls-1" d="M231.3,47.23H221V86.74c0,8.44-6.15,14.28-14.7,14.28-8.76,0-14.8-5.84-14.8-14.28V47.23H181.16l-.1,39.82c0,14.07,10.42,23.77,25.22,23.77s25.12-9.7,25.12-23.77Z"/><path class="cls-1" d="M48.69,104l7.19,7.71L69.46,98.38H98.52v11.39h10.42V45.46h-.31ZM80,88l18.48-18.2V88Z"/></svg>