<svg id="Layer_1" data-name="Layer 1" xmlns="http://www.w3.org/2000/svg" viewBox="0 0 423.25 157.21"><defs><style>.cls-1{fill:#2814ff;}</style></defs><path class="cls-1" d="M85.52,47.34v39.5c0,8.44-6.15,14.28-14.7,14.28H66.55v9.8h4.27c14.7,0,25.12-9.69,25.12-23.77l-.1-39.81Z"/><rect class="cls-1" x="45.49" y="47.34" width="10.42" height="62.54"/><polygon class="cls-1" points="160.04 45.35 136.38 74.33 106.88 45.56 106.57 45.56 106.57 109.88 116.99 109.88 116.99 69.85 159.63 111.86 166.82 104.14 143.57 81.42 168.18 51.71 160.04 45.35"/><polygon class="cls-1" points="307.02 87.88 266.36 45.56 266.05 45.56 266.05 109.88 276.27 109.88 276.27 69.33 316.92 111.65 317.23 111.65 317.23 47.34 307.02 47.34 307.02 87.88"/><path class="cls-1" d="M378.1,47.34H367.78v39.5c0,8.44-6.15,14.28-14.69,14.28-8.76,0-14.8-5.84-14.8-14.28V47.34H328l-.1,39.81c0,14.08,10.43,23.77,25.23,23.77s25.12-9.69,25.12-23.77Z"/><path class="cls-1" d="M195.5,104.14l7.19,7.72,13.57-13.38h29.06v11.4h10.42V45.56h-.31Zm31.34-16.08,18.48-18.21V88.06Z"/></svg>